<?xml version="1.0" encoding="utf-8"?>
<!-- Generator: Adobe Illustrator 17.1.0, SVG Export Plug-In . SVG Version: 6.00 Build 0)  -->
<!DOCTYPE svg PUBLIC "-//W3C//DTD SVG 1.1//EN" "http://www.w3.org/Graphics/SVG/1.1/DTD/svg11.dtd">
<svg version="1.1" id="Layer_1" xmlns="http://www.w3.org/2000/svg" xmlns:xlink="http://www.w3.org/1999/xlink" x="0px" y="0px"
	 viewBox="0 0 595.28 841.89" enable-background="new 0 0 595.28 841.89" xml:space="preserve">
<g>
	<g>
		<path fill="#F6F6F6" d="M37.205,284.217c-5.581,0-9.301-3.72-9.301-9.301v-44.646c0-5.581,3.721-9.301,9.301-9.301h520.87
			c5.581,0,9.301,3.721,9.301,9.301v44.646c0,5.581-3.721,9.301-9.301,9.301H37.205z"/>
		<rect x="37.205" y="230.269" fill="#F6F6F6" width="520.87" height="44.646"/>
	</g>
	<g>
		<path fill="#F6F6F6" d="M37.205,451.639c-5.581,0-9.301-3.721-9.301-9.301v-44.646c0-5.581,3.721-9.301,9.301-9.301h520.87
			c5.581,0,9.301,3.72,9.301,9.301v44.646c0,5.581-3.721,9.301-9.301,9.301H37.205z"/>
		<rect x="37.205" y="397.692" fill="#F6F6F6" width="520.87" height="44.646"/>
	</g>
	<g>
		<path fill="#F6F6F6" d="M37.205,620.922c-5.581,0-9.301-3.721-9.301-9.301v-44.646c0-5.581,3.721-9.301,9.301-9.301h520.87
			c5.581,0,9.301,3.721,9.301,9.301v44.646c0,5.581-3.721,9.301-9.301,9.301H37.205z"/>
		<rect x="37.205" y="566.975" fill="#F6F6F6" width="520.87" height="44.646"/>
	</g>
</g>
</svg>
